<svg xmlns="http://www.w3.org/2000/svg" width="80" height="80" viewBox="0 0 80 80" fill="none" id="Logo"><g id="logomark"><g id="outline"><path d="M80 40C80 62.0914 62.0914 80 40 80C17.9086 80 0 62.0914 0 40C0 17.9086 17.9086 0 40 0C62.0914 0 80 17.9086 80 40Z" fill="#1D2633"></path></g><path d="M69.7127 50.2134C71.0635 50.2134 72.0243 51.5262 71.5163 52.7778C66.4657 65.2234 54.2573 74.0001 39.999 74.0001C25.7408 74.0001 13.5324 65.2234 8.4817 52.7778C7.97373 51.5262 8.93455 50.2134 10.2854 50.2134H69.7127Z" fill="#EDEBDE"></path><path d="M71.5163 27.2222C72.0243 28.4739 71.0635 29.7867 69.7127 29.7867H10.2854C8.93454 29.7867 7.97373 28.4739 8.48169 27.2222C13.5324 14.7767 25.7408 6 39.999 6C54.2573 6 66.4655 14.7767 71.5163 27.2222Z" fill="#EDEBDE"></path><path d="M34 6.52774C35.9477 6.18095 37.9527 6 40.0001 6C42.0474 6 44.0524 6.18095 46 6.52773V29.7867H34V6.52774Z" fill="#AC2828"></path><path d="M46.0007 50.2134H33.9995C33.9743 55.4313 33.0237 60.6039 31.1912 65.4907L28.7188 72.0837C32.2489 73.325 36.0457 74.0001 40.0002 74.0001C43.9546 74.0001 47.7514 73.325 51.2815 72.0837L48.809 65.4907C46.9765 60.6039 46.0259 55.4313 46.0007 50.2134Z" fill="#AC2828"></path><path d="M46 6.52783C50.3408 7.30072 54.3967 8.89734 58 11.1503V29.7868H46V6.52783Z" fill="#306A9F"></path><path d="M51.2808 72.0837C56.7382 70.1648 61.5584 66.8929 65.3386 62.6705L64.7487 62.2951C60.6051 59.6582 58.0725 55.1148 58.001 50.2134H46C46.0252 55.4313 46.9759 60.6039 48.8085 65.4907L51.2808 72.0837Z" fill="#306A9F"></path><path d="M22 11.1503C25.6033 8.89735 29.6591 7.30072 34 6.52783V29.7868H22V11.1503Z" fill="#DEB038"></path><path d="M21.9979 50.2134H33.9989C33.9738 55.409 33.0311 60.5597 31.2139 65.4281L28.7181 72.0837C23.2606 70.1648 18.4405 66.8929 14.6602 62.6705L15.2501 62.2951C19.3937 59.6582 21.9264 55.1148 21.9979 50.2134Z" fill="#DEB038"></path>
<!-- Stakepedia text replacing path-based Logoipsum -->
<text x="40" y="43.5" font-family="Arial, Helvetica, sans-serif" font-size="8.5" font-weight="bold" fill="#EDEBDE" text-anchor="middle" letter-spacing="0.2">Stakepedia</text>
</g></svg>